<svg xmlns="http://www.w3.org/2000/svg" xmlns:xlink="http://www.w3.org/1999/xlink" width="24" height="600" viewBox="0 0 24 600"><svg viewBox="0 0 24 24" width="24" height="24" id="callList" y="0"><path class="st2" d="M10.6 9.6H3.7v1.7h6.9V9.6zM14 6.2H3.7v1.7H14V6.2zM3.7 14.8h6.9V13H3.7v1.8z"></path><path d="M13.2 13.3c.7 1.4 1.8 2.5 3.1 3.1l1.1-1.1c.1-.1.3-.2.5-.1.5.2 1.1.3 1.7.3.3 0 .5.2.5.5v1.7c0 .3-.2.5-.5.5-4.5 0-8.1-3.6-8.1-8.1 0-.3.2-.5.5-.5h1.7c.3 0 .5.2.5.5 0 .6.1 1.2.3 1.7.1.2 0 .4-.1.5l-1.2 1z"></path></svg><svg viewBox="0 0 24 24" width="24" height="24" id="check" y="24"><path d="M0 0h24v24H0z" fill="none"></path><path d="M9 16.17L4.83 12l-1.42 1.41L9 19 21 7l-1.41-1.41z"></path></svg><svg viewBox="0 0 24 24" width="24" height="24" id="close" y="48"><path d="M19 6.41L17.59 5 12 10.59 6.41 5 5 6.41 10.59 12 5 17.59 6.41 19 12 13.41 17.59 19 19 17.59 13.41 12z"></path><path d="M0 0h24v24H0z" fill="none"></path></svg><svg viewBox="0 0 24 24" width="24" height="24" id="company" y="72"><path d="M15 11V5l-3-3-3 3v2H3v14h18V11h-6zm-8 8H5v-2h2v2zm0-4H5v-2h2v2zm0-4H5V9h2v2zm6 8h-2v-2h2v2zm0-4h-2v-2h2v2zm0-4h-2V9h2v2zm0-4h-2V5h2v2zm6 12h-2v-2h2v2zm0-4h-2v-2h2v2z"></path><path d="M0 0h24v24H0z" fill="none"></path></svg><svg viewBox="0 0 24 24" width="24" height="24" id="down" y="96"><path d="M16.59 8.59L12 13.17 7.41 8.59 6 10l6 6 6-6z"></path><path d="M0 0h24v24H0z" fill="none"></path></svg><svg viewBox="0 0 24 24" width="24" height="24" id="download" y="120"><path d="M19 9h-4V3H9v6H5l7 7 7-7zM5 18v2h14v-2H5z"></path><path d="M0 0h24v24H0z" fill="none"></path></svg><svg viewBox="0 0 24 24" width="24" height="24" id="dropDown" y="144"><path d="M7 10l5 5 5-5z"></path><path d="M0 0h24v24H0z" fill="none"></path></svg><svg viewBox="0 0 24 24" width="24" height="24" id="dropUp" y="168"><path d="M7 14l5-5 5 5z"></path><path d="M0 0h24v24H0z" fill="none"></path></svg><svg viewBox="0 0 24 24" width="24" height="24" id="edit" y="192"><path d="M3 17.25V21h3.75L17.81 9.94l-3.75-3.75L3 17.25zM20.71 7.04a.996.996 0 0 0 0-1.41l-2.34-2.34a.996.996 0 0 0-1.41 0l-1.83 1.83 3.75 3.75 1.83-1.83z"></path><path d="M0 0h24v24H0z" fill="none"></path></svg><svg viewBox="0 0 24 24" width="24" height="24" id="email" y="216"><path d="M20 4H4c-1.1 0-1.99.9-1.99 2L2 18c0 1.1.9 2 2 2h16c1.1 0 2-.9 2-2V6c0-1.1-.9-2-2-2zm0 4l-8 5-8-5V6l8 5 8-5v2z"></path><path d="M0 0h24v24H0z" fill="none"></path></svg><svg viewBox="0 0 24 24" width="24" height="24" id="folder" y="240"><path d="M10 4H4c-1.1 0-1.99.9-1.99 2L2 18c0 1.1.9 2 2 2h16c1.1 0 2-.9 2-2V8c0-1.1-.9-2-2-2h-8l-2-2z"></path><path d="M0 0h24v24H0z" fill="none"></path></svg><svg viewBox="0 0 24 24" width="24" height="24" id="help" y="264"><path d="M0 0h24v24H0z" fill="none"></path><path d="M12 2C6.48 2 2 6.48 2 12s4.48 10 10 10 10-4.48 10-10S17.52 2 12 2zm1 17h-2v-2h2v2zm2.07-7.75l-.9.92C13.45 12.9 13 13.5 13 15h-2v-.5c0-1.1.45-2.1 1.17-2.83l1.24-1.26c.37-.36.59-.86.59-1.41 0-1.1-.9-2-2-2s-2 .9-2 2H8c0-2.21 1.79-4 4-4s4 1.79 4 4c0 .88-.36 1.68-.93 2.25z"></path></svg><svg viewBox="0 0 24 24" width="24" height="24" id="left" y="288"><path d="M15.41 7.41L14 6l-6 6 6 6 1.41-1.41L10.83 12z"></path><path d="M0 0h24v24H0z" fill="none"></path></svg><svg viewBox="0 0 24 24" width="24" height="24" id="list" y="312"><path d="M4 10.5c-.83 0-1.5.67-1.5 1.5s.67 1.5 1.5 1.5 1.5-.67 1.5-1.5-.67-1.5-1.5-1.5zm0-6c-.83 0-1.5.67-1.5 1.5S3.17 7.5 4 7.5 5.5 6.83 5.5 6 4.83 4.5 4 4.5zm0 12c-.83 0-1.5.68-1.5 1.5s.68 1.5 1.5 1.5 1.5-.68 1.5-1.5-.67-1.5-1.5-1.5zM7 19h14v-2H7v2zm0-6h14v-2H7v2zm0-8v2h14V5H7z"></path><path fill="none" d="M0 0h24v24H0V0z"></path></svg><svg viewBox="0 0 24 24" width="24" height="24" id="money" y="336"><path d="M11.8 10.9c-2.27-.59-3-1.2-3-2.15 0-1.09 1.01-1.85 2.7-1.85 1.78 0 2.44.85 2.5 2.1h2.21c-.07-1.72-1.12-3.3-3.21-3.81V3h-3v2.16c-1.94.42-3.5 1.68-3.5 3.61 0 2.31 1.91 3.46 4.7 4.13 2.5.6 3 1.48 3 2.41 0 .69-.49 1.79-2.7 1.79-2.06 0-2.87-.92-2.98-2.1h-2.2c.12 2.19 1.76 3.42 3.68 3.83V21h3v-2.15c1.95-.37 3.5-1.5 3.5-3.55 0-2.84-2.43-3.81-4.7-4.4z"></path><path d="M0 0h24v24H0z" fill="none"></path></svg><svg viewBox="0 0 24 24" width="24" height="24" id="people" y="360"><path d="M0 0h24v24H0z" fill="none"></path><path d="M16 11c1.66 0 2.99-1.34 2.99-3S17.66 5 16 5c-1.66 0-3 1.34-3 3s1.34 3 3 3zm-8 0c1.66 0 2.99-1.34 2.99-3S9.66 5 8 5C6.34 5 5 6.34 5 8s1.34 3 3 3zm0 2c-2.33 0-7 1.17-7 3.5V19h14v-2.5c0-2.33-4.67-3.5-7-3.5zm8 0c-.29 0-.62.02-.97.05 1.16.84 1.97 1.97 1.97 3.45V19h6v-2.5c0-2.33-4.67-3.5-7-3.5z"></path></svg><svg viewBox="0 0 24 24" width="24" height="24" id="person" y="384"><path d="M12 12c2.21 0 4-1.79 4-4s-1.79-4-4-4-4 1.79-4 4 1.79 4 4 4zm0 2c-2.67 0-8 1.34-8 4v2h16v-2c0-2.66-5.33-4-8-4z"></path><path d="M0 0h24v24H0z" fill="none"></path></svg><svg viewBox="0 0 24 24" width="24" height="24" id="phone" y="408"><path d="M0 0h24v24H0z" fill="none"></path><path d="M6.62 10.79c1.44 2.83 3.76 5.14 6.59 6.59l2.2-2.2c.27-.27.67-.36 1.02-.24 1.12.37 2.33.57 3.57.57.55 0 1 .45 1 1V20c0 .55-.45 1-1 1-9.39 0-17-7.61-17-17 0-.55.45-1 1-1h3.5c.55 0 1 .45 1 1 0 1.25.2 2.45.57 3.57.11.35.03.74-.25 1.02l-2.2 2.2z"></path></svg><svg viewBox="0 0 24 24" width="24" height="24" id="property" y="432"><path d="M0 0h24v24H0z" fill="none"></path><path d="M12 7V3H2v18h20V7H12zM6 19H4v-2h2v2zm0-4H4v-2h2v2zm0-4H4V9h2v2zm0-4H4V5h2v2zm4 12H8v-2h2v2zm0-4H8v-2h2v2zm0-4H8V9h2v2zm0-4H8V5h2v2zm10 12h-8v-2h2v-2h-2v-2h2v-2h-2V9h8v10zm-2-8h-2v2h2v-2zm0 4h-2v2h2v-2z"></path></svg><svg viewBox="0 0 24 24" width="24" height="24" id="right" y="456"><path d="M10 6L8.59 7.41 13.17 12l-4.58 4.59L10 18l6-6z"></path><path d="M0 0h24v24H0z" fill="none"></path></svg><svg viewBox="0 0 24 24" width="24" height="24" id="search" y="480"><path d="M15.5 14h-.79l-.28-.27A6.471 6.471 0 0 0 16 9.5 6.5 6.5 0 1 0 9.5 16c1.61 0 3.09-.59 4.23-1.57l.27.28v.79l5 4.99L20.49 19l-4.99-5zm-6 0C7.01 14 5 11.99 5 9.5S7.01 5 9.5 5 14 7.01 14 9.5 11.99 14 9.5 14z"></path><path d="M0 0h24v24H0z" fill="none"></path></svg><svg viewBox="0 0 24 24" width="24" height="24" id="task" y="504"><defs><path id="a" d="M0 0h24v24H0V0z"></path></defs><clipPath id="b"><use xlink:href="#a" overflow="visible"></use></clipPath><path clip-path="url(#b)" d="M14 10H2v2h12v-2zm0-4H2v2h12V6zM2 16h8v-2H2v2zm19.5-4.5L23 13l-6.99 7-4.51-4.5L13 14l3.01 3 5.49-5.5z"></path></svg><svg viewBox="0 0 24 24" width="24" height="24" id="thumbUp" y="528"><path fill="none" d="M0 0h24v24H0V0z"></path><path d="M1 21h4V9H1v12zm22-11c0-1.1-.9-2-2-2h-6.31l.95-4.57.03-.32c0-.41-.17-.79-.44-1.06L14.17 1 7.59 7.59C7.22 7.95 7 8.45 7 9v10c0 1.1.9 2 2 2h9c.83 0 1.54-.5 1.84-1.22l3.02-7.05c.09-.23.14-.47.14-.73v-2z"></path></svg><svg viewBox="0 0 24 24" width="24" height="24" id="time" y="552"><path d="M11.99 2C6.47 2 2 6.48 2 12s4.47 10 9.99 10C17.52 22 22 17.52 22 12S17.52 2 11.99 2zM12 20c-4.42 0-8-3.58-8-8s3.58-8 8-8 8 3.58 8 8-3.58 8-8 8z"></path><path d="M0 0h24v24H0z" fill="none"></path><path d="M12.5 7H11v6l5.25 3.15.75-1.23-4.5-2.67z"></path></svg><svg viewBox="0 0 24 24" width="24" height="24" id="up" y="576"><path d="M12 8l-6 6 1.41 1.41L12 10.83l4.59 4.58L18 14z"></path><path d="M0 0h24v24H0z" fill="none"></path></svg></svg>