<svg xmlns="http://www.w3.org/2000/svg" xmlns:xlink="http://www.w3.org/1999/xlink" width="200" height="1256" viewBox="0 0 200 1256"><svg width="24" height="24" viewBox="0 0 24 24" id="add" y="0"><path fill="none" d="M0 0h24v24H0V0z"></path><path d="M18 13h-5v5c0 .55-.45 1-1 1s-1-.45-1-1v-5H6c-.55 0-1-.45-1-1s.45-1 1-1h5V6c0-.55.45-1 1-1s1 .45 1 1v5h5c.55 0 1 .45 1 1s-.45 1-1 1z"></path></svg><svg viewBox="0 0 200 200" width="200" height="200" id="apto" y="24"><path d="M42.5 116.9c9.4 29.8 34.2 54.7 67.7 63.7 27.2 7.3 54.6 2.6 76.2-10.6-11.1 1.9-32.4.6-47.2-7.2-31.4-16.6-25.4-45.3-60.8-49.7-17.1-2.1-29.9 3.9-35.9 3.8z"></path><path d="M132.7 53.9c-30.5-6.8-64.5 2.2-89 26.8-19.9 19.9-29.6 45.9-28.9 71.3 3.8-10.6 15.7-28.4 29.9-37.3 30-18.9 51.9.7 73.4-27.8 10.3-13.8 11.5-27.9 14.6-33z"></path><path d="M142 162.9c21.1-23 30.3-56.9 21.3-90.5-7.3-27.2-25-48.6-47.3-60.7 7.2 8.6 16.7 27.8 17.4 44.5 1.4 35.5-26.5 44.6-12.6 77.5 6.7 15.9 18.3 24 21.2 29.2z"></path></svg><svg width="24" height="24" viewBox="0 0 24 24" id="arrowBack" y="224"><path d="M0 0h24v24H0z" fill="none"></path><path d="M20 11H7.83l5.59-5.59L12 4l-8 8 8 8 1.41-1.41L7.83 13H20v-2z"></path></svg><svg width="24" height="24" viewBox="0 0 24 24" id="arrowForward" y="248"><path d="M0 0h24v24H0z" fill="none"></path><path d="M12 4l-1.41 1.41L16.17 11H4v2h12.17l-5.58 5.59L12 20l8-8z"></path></svg><svg width="24" height="24" viewBox="0 0 24 24" id="assignment" y="272"><path fill="none" d="M0 0h24v24H0V0z"></path><g><path d="M19 3h-4.18C14.4 1.84 13.3 1 12 1s-2.4.84-2.82 2H5c-1.1 0-2 .9-2 2v14c0 1.1.9 2 2 2h14c1.1 0 2-.9 2-2V5c0-1.1-.9-2-2-2zm-7 0c.55 0 1 .45 1 1s-.45 1-1 1-1-.45-1-1 .45-1 1-1zm1 14H8c-.55 0-1-.45-1-1s.45-1 1-1h5c.55 0 1 .45 1 1s-.45 1-1 1zm3-4H8c-.55 0-1-.45-1-1s.45-1 1-1h8c.55 0 1 .45 1 1s-.45 1-1 1zm0-4H8c-.55 0-1-.45-1-1s.45-1 1-1h8c.55 0 1 .45 1 1s-.45 1-1 1z"></path></g></svg><svg viewBox="0 0 24 24" width="24" height="24" id="callList" y="296"><path class="st2" d="M10.6 9.6H3.7v1.7h6.9V9.6zM14 6.2H3.7v1.7H14V6.2zM3.7 14.8h6.9V13H3.7v1.8z"></path><path d="M13.2 13.3c.7 1.4 1.8 2.5 3.1 3.1l1.1-1.1c.1-.1.3-.2.5-.1.5.2 1.1.3 1.7.3.3 0 .5.2.5.5v1.7c0 .3-.2.5-.5.5-4.5 0-8.1-3.6-8.1-8.1 0-.3.2-.5.5-.5h1.7c.3 0 .5.2.5.5 0 .6.1 1.2.3 1.7.1.2 0 .4-.1.5l-1.2 1z"></path></svg><svg viewBox="0 0 24 24" width="24" height="24" id="check" y="320"><path d="M0 0h24v24H0z" fill="none"></path><path d="M9 16.17L4.83 12l-1.42 1.41L9 19 21 7l-1.41-1.41z"></path></svg><svg width="24" height="24" viewBox="0 0 24 24" id="checkCircle" y="344"><path fill="none" d="M0 0h24v24H0V0z"></path><g><path d="M12 2C6.48 2 2 6.48 2 12s4.48 10 10 10 10-4.48 10-10S17.52 2 12 2zM9.29 16.29L5.7 12.7a.996.996 0 1 1 1.41-1.41L10 14.17l6.88-6.88a.996.996 0 1 1 1.41 1.41l-7.59 7.59a.996.996 0 0 1-1.41 0z"></path></g></svg><svg width="24" height="24" viewBox="0 0 24 24" id="checkboxChecked" y="368"><path fill="none" d="M0 0h24v24H0V0z"></path><path d="M19 3H5c-1.1 0-2 .9-2 2v14c0 1.1.9 2 2 2h14c1.1 0 2-.9 2-2V5c0-1.1-.9-2-2-2zm-8.29 13.29a.996.996 0 0 1-1.41 0L5.71 12.7a.996.996 0 1 1 1.41-1.41L10 14.17l6.88-6.88a.996.996 0 1 1 1.41 1.41l-7.58 7.59z"></path></svg><svg width="24" height="24" viewBox="0 0 24 24" id="checkboxOutline" y="392"><path fill="none" d="M0 0h24v24H0V0z"></path><path d="M18 19H6c-.55 0-1-.45-1-1V6c0-.55.45-1 1-1h12c.55 0 1 .45 1 1v12c0 .55-.45 1-1 1zm1-16H5c-1.1 0-2 .9-2 2v14c0 1.1.9 2 2 2h14c1.1 0 2-.9 2-2V5c0-1.1-.9-2-2-2z"></path></svg><svg viewBox="0 0 24 24" width="24" height="24" id="close" y="416"><path d="M19 6.41L17.59 5 12 10.59 6.41 5 5 6.41 10.59 12 5 17.59 6.41 19 12 13.41 17.59 19 19 17.59 13.41 12z"></path><path d="M0 0h24v24H0z" fill="none"></path></svg><svg viewBox="0 0 24 24" width="24" height="24" id="company" y="440"><path d="M15 11V5l-3-3-3 3v2H3v14h18V11h-6zm-8 8H5v-2h2v2zm0-4H5v-2h2v2zm0-4H5V9h2v2zm6 8h-2v-2h2v2zm0-4h-2v-2h2v2zm0-4h-2V9h2v2zm0-4h-2V5h2v2zm6 12h-2v-2h2v2zm0-4h-2v-2h2v2z"></path><path d="M0 0h24v24H0z" fill="none"></path></svg><svg viewBox="0 0 24 24" width="24" height="24" id="down" y="464"><path d="M16.59 8.59L12 13.17 7.41 8.59 6 10l6 6 6-6z"></path><path d="M0 0h24v24H0z" fill="none"></path></svg><svg viewBox="0 0 24 24" width="24" height="24" id="download" y="488"><path d="M19 9h-4V3H9v6H5l7 7 7-7zM5 18v2h14v-2H5z"></path><path d="M0 0h24v24H0z" fill="none"></path></svg><svg viewBox="0 0 24 24" width="24" height="24" id="dropDown" y="512"><path d="M7 10l5 5 5-5z"></path><path d="M0 0h24v24H0z" fill="none"></path></svg><svg viewBox="0 0 24 24" width="24" height="24" id="dropUp" y="536"><path d="M7 14l5-5 5 5z"></path><path d="M0 0h24v24H0z" fill="none"></path></svg><svg viewBox="0 0 24 24" width="24" height="24" id="edit" y="560"><path d="M3 17.25V21h3.75L17.81 9.94l-3.75-3.75L3 17.25zM20.71 7.04a.996.996 0 0 0 0-1.41l-2.34-2.34a.996.996 0 0 0-1.41 0l-1.83 1.83 3.75 3.75 1.83-1.83z"></path><path d="M0 0h24v24H0z" fill="none"></path></svg><svg viewBox="0 0 24 24" width="24" height="24" id="email" y="584"><path d="M20 4H4c-1.1 0-1.99.9-1.99 2L2 18c0 1.1.9 2 2 2h16c1.1 0 2-.9 2-2V6c0-1.1-.9-2-2-2zm0 4l-8 5-8-5V6l8 5 8-5v2z"></path><path d="M0 0h24v24H0z" fill="none"></path></svg><svg width="24" height="24" viewBox="0 0 24 24" id="file" y="608"><path fill="none" d="M0 0h24v24H0V0z"></path><path d="M6 2c-1.1 0-1.99.9-1.99 2L4 20c0 1.1.89 2 1.99 2H18c1.1 0 2-.9 2-2V8.83c0-.53-.21-1.04-.59-1.41l-4.83-4.83c-.37-.38-.88-.59-1.41-.59H6zm7 6V3.5L18.5 9H14c-.55 0-1-.45-1-1z"></path></svg><svg viewBox="0 0 24 24" width="24" height="24" id="folder" y="632"><path d="M10 4H4c-1.1 0-1.99.9-1.99 2L2 18c0 1.1.9 2 2 2h16c1.1 0 2-.9 2-2V8c0-1.1-.9-2-2-2h-8l-2-2z"></path><path d="M0 0h24v24H0z" fill="none"></path></svg><svg viewBox="0 0 24 24" width="24" height="24" id="help" y="656"><path d="M0 0h24v24H0z" fill="none"></path><path d="M12 2C6.48 2 2 6.48 2 12s4.48 10 10 10 10-4.48 10-10S17.52 2 12 2zm1 17h-2v-2h2v2zm2.07-7.75l-.9.92C13.45 12.9 13 13.5 13 15h-2v-.5c0-1.1.45-2.1 1.17-2.83l1.24-1.26c.37-.36.59-.86.59-1.41 0-1.1-.9-2-2-2s-2 .9-2 2H8c0-2.21 1.79-4 4-4s4 1.79 4 4c0 .88-.36 1.68-.93 2.25z"></path></svg><svg width="24" height="24" viewBox="0 0 24 24" id="home" y="680"><path fill="none" d="M0 0h24v24H0V0z"></path><g><path d="M10 19v-5h4v5c0 .55.45 1 1 1h3c.55 0 1-.45 1-1v-7h1.7c.46 0 .68-.57.33-.87L12.67 3.6c-.38-.34-.96-.34-1.34 0l-8.36 7.53c-.34.3-.13.87.33.87H5v7c0 .55.45 1 1 1h3c.55 0 1-.45 1-1z"></path></g></svg><svg viewBox="0 0 24 24" width="24" height="24" id="left" y="704"><path d="M15.41 7.41L14 6l-6 6 6 6 1.41-1.41L10.83 12z"></path><path d="M0 0h24v24H0z" fill="none"></path></svg><svg width="24" height="24" viewBox="0 0 24 24" id="link" y="728"><path fill="none" d="M0 0h24v24H0V0z"></path><path d="M18 19H6c-.55 0-1-.45-1-1V6c0-.55.45-1 1-1h5c.55 0 1-.45 1-1s-.45-1-1-1H5a2 2 0 0 0-2 2v14c0 1.1.9 2 2 2h14c1.1 0 2-.9 2-2v-6c0-.55-.45-1-1-1s-1 .45-1 1v5c0 .55-.45 1-1 1zM14 4c0 .55.45 1 1 1h2.59l-9.13 9.13a.996.996 0 1 0 1.41 1.41L19 6.41V9c0 .55.45 1 1 1s1-.45 1-1V3h-6c-.55 0-1 .45-1 1z"></path></svg><svg viewBox="0 0 24 24" width="24" height="24" id="list" y="752"><path d="M4 10.5c-.83 0-1.5.67-1.5 1.5s.67 1.5 1.5 1.5 1.5-.67 1.5-1.5-.67-1.5-1.5-1.5zm0-6c-.83 0-1.5.67-1.5 1.5S3.17 7.5 4 7.5 5.5 6.83 5.5 6 4.83 4.5 4 4.5zm0 12c-.83 0-1.5.68-1.5 1.5s.68 1.5 1.5 1.5 1.5-.68 1.5-1.5-.67-1.5-1.5-1.5zM7 19h14v-2H7v2zm0-6h14v-2H7v2zm0-8v2h14V5H7z"></path><path fill="none" d="M0 0h24v24H0V0z"></path></svg><svg width="24" height="24" viewBox="0 0 24 24" id="loyalty" y="776"><path d="M0 0h24v24H0z" fill="none"></path><path d="M21.41 11.58l-9-9C12.05 2.22 11.55 2 11 2H4c-1.1 0-2 .9-2 2v7c0 .55.22 1.05.59 1.42l9 9c.36.36.86.58 1.41.58.55 0 1.05-.22 1.41-.59l7-7c.37-.36.59-.86.59-1.41 0-.55-.23-1.06-.59-1.42zM5.5 7C4.67 7 4 6.33 4 5.5S4.67 4 5.5 4 7 4.67 7 5.5 6.33 7 5.5 7zm11.77 8.27L13 19.54l-4.27-4.27A2.5 2.5 0 0 1 10.5 11c.69 0 1.32.28 1.77.74l.73.72.73-.73a2.5 2.5 0 0 1 3.54 3.54z"></path></svg><svg width="24" height="24" viewBox="0 0 24 24" id="meeting" y="800"><path fill="none" d="M0 0h24v24H0V0z"></path><g><path d="M16 13h-3c-.55 0-1 .45-1 1v3c0 .55.45 1 1 1h3c.55 0 1-.45 1-1v-3c0-.55-.45-1-1-1zm0-10v1H8V3c0-.55-.45-1-1-1s-1 .45-1 1v1H5c-1.11 0-1.99.9-1.99 2L3 20a2 2 0 0 0 2 2h14c1.1 0 2-.9 2-2V6c0-1.1-.9-2-2-2h-1V3c0-.55-.45-1-1-1s-1 .45-1 1zm2 17H6c-.55 0-1-.45-1-1V9h14v10c0 .55-.45 1-1 1z"></path></g></svg><svg width="24" height="24" viewBox="0 0 24 24" id="menu" y="824"><path fill="none" d="M0 0h24v24H0V0z"></path><path d="M4 18h16c.55 0 1-.45 1-1s-.45-1-1-1H4c-.55 0-1 .45-1 1s.45 1 1 1zm0-5h16c.55 0 1-.45 1-1s-.45-1-1-1H4c-.55 0-1 .45-1 1s.45 1 1 1zM3 7c0 .55.45 1 1 1h16c.55 0 1-.45 1-1s-.45-1-1-1H4c-.55 0-1 .45-1 1z"></path></svg><svg viewBox="0 0 24 24" width="24" height="24" id="money" y="848"><path d="M11.8 10.9c-2.27-.59-3-1.2-3-2.15 0-1.09 1.01-1.85 2.7-1.85 1.78 0 2.44.85 2.5 2.1h2.21c-.07-1.72-1.12-3.3-3.21-3.81V3h-3v2.16c-1.94.42-3.5 1.68-3.5 3.61 0 2.31 1.91 3.46 4.7 4.13 2.5.6 3 1.48 3 2.41 0 .69-.49 1.79-2.7 1.79-2.06 0-2.87-.92-2.98-2.1h-2.2c.12 2.19 1.76 3.42 3.68 3.83V21h3v-2.15c1.95-.37 3.5-1.5 3.5-3.55 0-2.84-2.43-3.81-4.7-4.4z"></path><path d="M0 0h24v24H0z" fill="none"></path></svg><svg width="24" height="24" viewBox="0 0 24 24" id="peaks" y="872"><path fill="none" d="M0 0h24v24H0V0z"></path><g><path d="M21 19V5c0-1.1-.9-2-2-2H5c-1.1 0-2 .9-2 2v14c0 1.1.9 2 2 2h14c1.1 0 2-.9 2-2zM8.9 13.98l2.1 2.53 3.1-3.99c.2-.26.6-.26.8.01l3.51 4.68a.5.5 0 0 1-.4.8H6.02c-.42 0-.65-.48-.39-.81L8.12 14c.19-.26.57-.27.78-.02z"></path></g></svg><svg viewBox="0 0 24 24" width="24" height="24" id="people" y="896"><path d="M0 0h24v24H0z" fill="none"></path><path d="M16 11c1.66 0 2.99-1.34 2.99-3S17.66 5 16 5c-1.66 0-3 1.34-3 3s1.34 3 3 3zm-8 0c1.66 0 2.99-1.34 2.99-3S9.66 5 8 5C6.34 5 5 6.34 5 8s1.34 3 3 3zm0 2c-2.33 0-7 1.17-7 3.5V19h14v-2.5c0-2.33-4.67-3.5-7-3.5zm8 0c-.29 0-.62.02-.97.05 1.16.84 1.97 1.97 1.97 3.45V19h6v-2.5c0-2.33-4.67-3.5-7-3.5z"></path></svg><svg viewBox="0 0 24 24" width="24" height="24" id="person" y="920"><path d="M12 12c2.21 0 4-1.79 4-4s-1.79-4-4-4-4 1.79-4 4 1.79 4 4 4zm0 2c-2.67 0-8 1.34-8 4v2h16v-2c0-2.66-5.33-4-8-4z"></path><path d="M0 0h24v24H0z" fill="none"></path></svg><svg width="24" height="24" viewBox="0 0 24 24" id="personCircle" y="944"><path fill="none" d="M0 0h24v24H0V0z"></path><g><path d="M12 2C6.48 2 2 6.48 2 12s4.48 10 10 10 10-4.48 10-10S17.52 2 12 2zm0 3c1.66 0 3 1.34 3 3s-1.34 3-3 3-3-1.34-3-3 1.34-3 3-3zm0 14.2a7.2 7.2 0 0 1-6-3.22c.03-1.99 4-3.08 6-3.08 1.99 0 5.97 1.09 6 3.08a7.2 7.2 0 0 1-6 3.22z"></path></g></svg><svg viewBox="0 0 24 24" width="24" height="24" id="phone" y="968"><path d="M0 0h24v24H0z" fill="none"></path><path d="M6.62 10.79c1.44 2.83 3.76 5.14 6.59 6.59l2.2-2.2c.27-.27.67-.36 1.02-.24 1.12.37 2.33.57 3.57.57.55 0 1 .45 1 1V20c0 .55-.45 1-1 1-9.39 0-17-7.61-17-17 0-.55.45-1 1-1h3.5c.55 0 1 .45 1 1 0 1.25.2 2.45.57 3.57.11.35.03.74-.25 1.02l-2.2 2.2z"></path></svg><svg viewBox="0 0 24 24" width="24" height="24" id="property" y="992"><path d="M0 0h24v24H0z" fill="none"></path><path d="M12 7V3H2v18h20V7H12zM6 19H4v-2h2v2zm0-4H4v-2h2v2zm0-4H4V9h2v2zm0-4H4V5h2v2zm4 12H8v-2h2v2zm0-4H8v-2h2v2zm0-4H8V9h2v2zm0-4H8V5h2v2zm10 12h-8v-2h2v-2h-2v-2h2v-2h-2V9h8v10zm-2-8h-2v2h2v-2zm0 4h-2v2h2v-2z"></path></svg><svg width="24" height="24" viewBox="0 0 24 24" id="radioChecked" y="1016"><path fill="none" d="M0 0h24v24H0V0z"></path><path d="M12 2C6.48 2 2 6.48 2 12s4.48 10 10 10 10-4.48 10-10S17.52 2 12 2zm0 18c-4.42 0-8-3.58-8-8s3.58-8 8-8 8 3.58 8 8-3.58 8-8 8z"></path><circle cx="12" cy="12" r="5"></circle></svg><svg width="24" height="24" viewBox="0 0 24 24" id="radioOutline" y="1040"><path fill="none" d="M0 0h24v24H0V0z"></path><path d="M12 2C6.48 2 2 6.48 2 12s4.48 10 10 10 10-4.48 10-10S17.52 2 12 2zm0 18c-4.42 0-8-3.58-8-8s3.58-8 8-8 8 3.58 8 8-3.58 8-8 8z"></path></svg><svg viewBox="0 0 24 24" width="24" height="24" id="right" y="1064"><path d="M10 6L8.59 7.41 13.17 12l-4.58 4.59L10 18l6-6z"></path><path d="M0 0h24v24H0z" fill="none"></path></svg><svg viewBox="0 0 24 24" width="24" height="24" id="search" y="1088"><path d="M15.5 14h-.79l-.28-.27A6.471 6.471 0 0 0 16 9.5 6.5 6.5 0 1 0 9.5 16c1.61 0 3.09-.59 4.23-1.57l.27.28v.79l5 4.99L20.49 19l-4.99-5zm-6 0C7.01 14 5 11.99 5 9.5S7.01 5 9.5 5 14 7.01 14 9.5 11.99 14 9.5 14z"></path><path d="M0 0h24v24H0z" fill="none"></path></svg><svg viewBox="0 0 24 24" width="24" height="24" id="task" y="1112"><defs><path id="a" d="M0 0h24v24H0V0z"></path></defs><clipPath id="b"><use xlink:href="#a" overflow="visible"></use></clipPath><path clip-path="url(#b)" d="M14 10H2v2h12v-2zm0-4H2v2h12V6zM2 16h8v-2H2v2zm19.5-4.5L23 13l-6.99 7-4.51-4.5L13 14l3.01 3 5.49-5.5z"></path></svg><svg viewBox="0 0 24 24" width="24" height="24" id="thumbUp" y="1136"><path fill="none" d="M0 0h24v24H0V0z"></path><path d="M1 21h4V9H1v12zm22-11c0-1.1-.9-2-2-2h-6.31l.95-4.57.03-.32c0-.41-.17-.79-.44-1.06L14.17 1 7.59 7.59C7.22 7.95 7 8.45 7 9v10c0 1.1.9 2 2 2h9c.83 0 1.54-.5 1.84-1.22l3.02-7.05c.09-.23.14-.47.14-.73v-2z"></path></svg><svg viewBox="0 0 24 24" width="24" height="24" id="time" y="1160"><path d="M11.99 2C6.47 2 2 6.48 2 12s4.47 10 9.99 10C17.52 22 22 17.52 22 12S17.52 2 11.99 2zM12 20c-4.42 0-8-3.58-8-8s3.58-8 8-8 8 3.58 8 8-3.58 8-8 8z"></path><path d="M0 0h24v24H0z" fill="none"></path><path d="M12.5 7H11v6l5.25 3.15.75-1.23-4.5-2.67z"></path></svg><svg width="24" height="24" viewBox="0 0 24 24" id="trendingDown" y="1184"><path d="M16 18l2.29-2.29-4.88-4.88-4 4L2 7.41 3.41 6l6 6 4-4 6.3 6.29L22 12v6z"></path><path d="M0 0h24v24H0z" fill="none"></path></svg><svg width="24" height="24" viewBox="0 0 24 24" id="trendingUp" y="1208"><path d="M16 6l2.29 2.29-4.88 4.88-4-4L2 16.59 3.41 18l6-6 4 4 6.3-6.29L22 12V6z"></path><path d="M0 0h24v24H0z" fill="none"></path></svg><svg viewBox="0 0 24 24" width="24" height="24" id="up" y="1232"><path d="M12 8l-6 6 1.41 1.41L12 10.83l4.59 4.58L18 14z"></path><path d="M0 0h24v24H0z" fill="none"></path></svg></svg>